<?xml version="1.0" standalone="no"?>
<!DOCTYPE svg PUBLIC "-//W3C//DTD SVG 20010904//EN"
 "http://www.w3.org/TR/2001/REC-SVG-20010904/DTD/svg10.dtd">
<svg version="1.0" xmlns="http://www.w3.org/2000/svg"
 width="75.000000pt" height="75.000000pt" viewBox="0 0 75.000000 75.000000"
 preserveAspectRatio="xMidYMid meet">
<metadata>
Created by potrace 1.11, written by Peter Selinger 2001-2013
</metadata>
<g transform="translate(0.000000,75.000000) scale(0.100000,-0.100000)"
fill="#000000" stroke="none">
<path d="M508 690 c-34 -10 -88 -42 -88 -52 0 -4 -4 -8 -9 -8 -4 0 -8 12 -7
28 1 26 -1 27 -44 27 l-45 0 -1 -127 c-1 -106 -5 -133 -22 -170 -31 -63 -92
-93 -150 -74 -40 13 -46 41 -47 211 l0 160 -45 0 -45 0 0 -185 c1 -180 2 -186
25 -212 13 -15 38 -32 56 -38 34 -11 144 -10 144 1 0 7 40 22 53 20 5 -1 6 2
4 6 -2 5 3 16 12 25 16 17 17 10 17 -103 -1 -67 2 -125 5 -131 3 -5 24 -8 45
-6 l39 3 3 90 3 90 82 1 c136 1 212 55 242 169 10 39 10 113 1 145 -14 45 -31
80 -39 80 -5 0 -5 5 -2 10 4 6 3 9 -2 8 -4 -1 -20 5 -34 15 -29 19 -110 28
-151 17z m84 -75 c29 -12 48 -52 52 -110 7 -92 -25 -164 -83 -187 -31 -12
-131 -12 -144 1 -14 14 -11 172 3 206 8 17 14 32 14 35 3 15 22 34 50 51 30
19 69 20 108 4z"/>
</g>
</svg>
